<svg width="180" height="52" viewBox="0 0 180 52" fill="none" xmlns="http://www.w3.org/2000/svg">
<path d="M63.2715 21.6601V8.73389H73.4661V10.3098H65.048V14.2029H73.0541V15.7788H65.048V20.0875H73.8418L73.5353 21.6634H63.2715V21.6601Z" fill="white"/>
<path d="M90.4966 21.6601L88.809 18.0927H81.7918L80.124 21.6601H78.2222L84.4319 8.73389H86.2612L92.4709 21.6601H90.4966ZM85.3119 10.6555L82.4773 16.6099H88.1498L85.3119 10.6555Z" fill="white"/>
<path d="M107.764 16.5208H103.545V14.9815H109.432V20.1945C108.714 20.7497 107.82 21.1886 106.749 21.5078C105.678 21.8269 104.567 21.9865 103.42 21.9865C101.973 21.9865 100.708 21.7205 99.6232 21.1886C98.5388 20.6567 97.7016 19.8853 97.1116 18.8713C96.5216 17.8573 96.2217 16.6505 96.2217 15.2508C96.2217 13.8977 96.5018 12.7074 97.0655 11.6768C97.6291 10.6462 98.4399 9.84161 99.4979 9.26977C100.556 8.69793 101.812 8.40869 103.259 8.40869C104.755 8.40869 106.004 8.72453 107.01 9.35954C108.015 9.99454 108.72 10.9121 109.126 12.119L107.366 12.4282C107.043 11.607 106.538 10.9986 105.849 10.5996C105.16 10.2007 104.28 10.0012 103.203 10.0012C101.597 10.0012 100.342 10.4633 99.4353 11.3876C98.5256 12.3118 98.0707 13.5918 98.0707 15.2342C98.0707 16.8632 98.5421 18.1299 99.488 19.0342C100.434 19.9385 101.756 20.3907 103.453 20.3907C105.177 20.3907 106.611 20.0782 107.761 19.4498V16.5208H107.764Z" fill="white"/>
<path d="M115.533 21.6601V8.73389H117.31V20.0842H125.708L125.402 21.6601H115.533Z" fill="white"/>
<path d="M131.13 21.6601V8.73389H141.324V10.3098H132.906V14.2029H140.912V15.7788H132.906V20.0875H141.7L141.397 21.6601H131.13Z" fill="white"/>
<path d="M63.2715 42.9408V30.0146H65.048V41.365H73.4463L73.1398 42.9408H63.2715Z" fill="white"/>
<path d="M78.8682 42.9408V30.0146H80.6447V42.9408H78.8682Z" fill="white"/>
<path d="M97.9982 37.8018H93.7793V36.2625H99.666V41.4755C98.9475 42.0307 98.0543 42.4696 96.9831 42.7887C95.9119 43.1079 94.8011 43.2675 93.6541 43.2675C92.2071 43.2675 90.9415 43.0015 89.8571 42.4696C88.7727 41.9376 87.9355 41.1663 87.3455 40.1523C86.7555 39.1383 86.4556 37.9315 86.4556 36.5318C86.4556 35.1787 86.7357 33.9884 87.2993 32.9578C87.863 31.9272 88.6738 31.1226 89.7318 30.5508C90.7898 29.9789 92.0456 29.6897 93.4926 29.6897C94.989 29.6897 96.2382 30.0055 97.2435 30.6405C98.2487 31.2755 98.9541 32.1931 99.3595 33.4L97.5994 33.7092C97.2764 32.888 96.7721 32.2796 96.0833 31.8806C95.3944 31.4817 94.5143 31.2822 93.4365 31.2822C91.8314 31.2822 90.5756 31.7443 89.6692 32.6686C88.7595 33.5928 88.3046 34.8728 88.3046 36.5152C88.3046 38.1442 88.776 39.4109 89.7219 40.3152C90.6679 41.2195 91.9896 41.6717 93.687 41.6717C95.4109 41.6717 96.8446 41.3592 97.995 40.7308V37.8018H97.9982Z" fill="white"/>
<path d="M115.949 42.9408V37.0928H107.547V42.9408H105.771V30.0146H107.547V35.4105H115.945V30.0146H117.722V42.9408H115.949Z" fill="white"/>
<path d="M128.243 42.9408V31.5905H122.93V30.0146H135.333V31.5905H130.019V42.9408H128.243Z" fill="white"/>
<path d="M140.537 42.9408V30.0146H142.313V42.9408H140.537Z" fill="white"/>
<path d="M159.255 42.9408L150.728 32.548V42.9408H148.988V30.0146H150.712L159.235 40.4075V30.0146H160.975V42.9408H159.255Z" fill="white"/>
<path d="M178.332 37.8018H174.113V36.2625H180V41.4755C179.281 42.0307 178.388 42.4696 177.317 42.7887C176.245 43.1079 175.135 43.2675 173.988 43.2675C172.541 43.2675 171.275 43.0015 170.191 42.4696C169.106 41.9376 168.269 41.1663 167.679 40.1523C167.089 39.1383 166.789 37.9315 166.789 36.5318C166.789 35.1787 167.069 33.9884 167.633 32.9578C168.196 31.9272 169.007 31.1226 170.065 30.5508C171.123 29.9789 172.379 29.6897 173.826 29.6897C175.322 29.6897 176.572 30.0055 177.577 30.6405C178.582 31.2755 179.288 32.1931 179.693 33.4L177.933 33.7092C177.61 32.888 177.106 32.2796 176.417 31.8806C175.728 31.4817 174.848 31.2822 173.77 31.2822C172.165 31.2822 170.909 31.7443 170.003 32.6686C169.093 33.5928 168.638 34.8728 168.638 36.5152C168.638 38.1442 169.109 39.4109 170.055 40.3152C171.001 41.2195 172.323 41.6717 174.021 41.6717C175.744 41.6717 177.178 41.3592 178.328 40.7308V37.8018H178.332Z" fill="white"/>
<path d="M50.8038 29.4729C49.8512 22.7704 46.4432 15.8386 41.2091 9.95396C38.391 6.78558 35.0653 4.01616 31.5847 1.93161C29.6236 0.671576 27.5899 0.00997391 25.5497 0C25.5398 0 25.5332 0 25.5233 0C25.5134 0 25.5068 0 25.4969 0C23.4534 0.00997391 21.4165 0.671577 19.4553 1.94159C15.9649 4.02613 12.7381 6.72241 9.86063 9.95396C4.62654 15.8386 1.21846 22.7704 0.26591 29.4729C-0.676752 36.1055 0.905338 41.7109 4.71883 45.2583C7.41498 47.765 10.9912 49.0284 15.0387 49.0284C15.3254 49.0284 15.6155 49.0184 15.9055 49.0085C18.8851 50.7838 22.2009 51.6748 25.52 51.6748C28.8391 51.6748 32.1582 50.7838 35.1444 49.0085C35.441 49.0218 35.7377 49.0317 36.031 49.0317C40.0752 49.0317 43.6547 47.7684 46.3509 45.2616C50.1644 41.7142 51.7432 36.1055 50.8038 29.4729ZM34.6302 47.027C32.3889 46.8574 29.9993 46.2789 27.5405 45.2915C33.9479 40.5639 38.1141 32.2423 38.536 23.1095C38.7568 18.3354 37.9361 13.6576 36.2189 9.50181C40.2631 15.5227 42.9098 23.9607 42.9098 30.2509C42.9098 37.0464 39.7423 43.443 34.6302 47.027ZM25.5233 1.95156C25.6255 1.95156 25.7277 1.95489 25.8298 1.95821C28.1997 2.05795 30.3619 3.33793 31.733 5.29282C35.1477 10.1701 36.9078 16.4902 36.6078 23.0198C36.1958 31.9797 31.967 40.0752 25.5365 44.3207C19.1027 40.0752 14.8772 31.9797 14.4652 23.0198C14.1619 16.4669 15.9088 10.1468 19.307 5.29282C20.6155 3.42438 22.6492 2.16101 24.9103 1.97483C25.108 1.95821 25.3157 1.95156 25.5233 1.95156ZM16.4197 47.027C11.3043 43.443 8.1401 37.0497 8.1401 30.2509C8.1401 23.964 10.7802 15.5327 14.8244 9.51178C13.1237 13.6543 12.3129 18.3287 12.5337 23.1095C12.9556 32.2423 17.1185 40.5639 23.5292 45.2915C21.0605 46.2823 18.6676 46.8607 16.4197 47.027ZM2.1776 29.7522C3.07742 23.4254 6.3174 16.8559 11.2977 11.2572C11.4658 11.0677 11.6339 10.8815 11.8053 10.6987C11.7756 10.7519 11.7459 10.8017 11.7163 10.8549C8.31809 16.8792 6.20534 24.3097 6.20534 30.2509C6.20534 36.7372 8.86193 42.9011 13.2819 46.9871C10.4506 46.6812 7.96212 45.6273 6.02735 43.8254C2.69508 40.7268 1.33052 35.7299 2.1776 29.7522ZM19.4125 48.5696C21.3967 48.164 23.4534 47.4891 25.5332 46.5449C27.6097 47.4891 29.6598 48.1607 31.6407 48.5663C27.702 50.1122 23.3545 50.1122 19.4125 48.5696ZM45.0391 43.8287C43.0977 45.634 40.6026 46.6912 37.7614 46.9904C42.1847 42.9044 44.8413 36.7406 44.8413 30.2509C44.8413 24.3097 42.7285 16.8792 39.3303 10.8516C39.2908 10.7785 39.2479 10.7087 39.2051 10.6355C39.3963 10.8383 39.5808 11.0444 39.7687 11.2539C44.7523 16.8559 47.9923 23.4221 48.8888 29.7488C49.7392 35.7299 48.3713 40.7301 45.0391 43.8287Z" fill="url(#paint0_linear)"/>
<defs>
<linearGradient id="paint0_linear" x1="25.5337" y1="0" x2="25.5337" y2="51.677" gradientUnits="userSpaceOnUse">
<stop offset="0.4131" stop-color="#00249C"/>
<stop offset="0.4505" stop-color="#05269A"/>
<stop offset="0.4929" stop-color="#122B94"/>
<stop offset="0.5376" stop-color="#29338B"/>
<stop offset="0.5841" stop-color="#493E7E"/>
<stop offset="0.6318" stop-color="#724D6D"/>
<stop offset="0.6807" stop-color="#A45E58"/>
<stop offset="0.7294" stop-color="#DE7340"/>
<stop offset="0.7549" stop-color="#FF7F32"/>
<stop offset="0.7552" stop-color="#FF7F32"/>
<stop offset="0.7728" stop-color="#F3642B"/>
<stop offset="0.7927" stop-color="#EA4E26"/>
<stop offset="0.8163" stop-color="#E33D21"/>
<stop offset="0.8455" stop-color="#DE321E"/>
<stop offset="0.8864" stop-color="#DB2B1C"/>
<stop offset="1" stop-color="#DA291C"/>
</linearGradient>
</defs>
</svg>
