<svg width="16" height="16" viewBox="0 0 16 16" fill="none" xmlns="http://www.w3.org/2000/svg">
<path fill-rule="evenodd" clip-rule="evenodd" d="M4 0C1.79086 0 0 1.79086 0 4V12C0 14.2091 1.79086 16 4 16H7.90461V10.5262H6.01279V8.39303H7.90461V6.81993C7.90461 4.99416 9.0495 4 10.7224 4C11.5237 4 12.212 4.05831 12.4128 4.08422V5.99244L11.2528 5.99303C10.3432 5.99303 10.1672 6.41413 10.1672 7.03136V8.39362H12.3366L12.0541 10.5268H10.1672V16H12C14.2091 16 16 14.2091 16 12V4C16 1.79086 14.2091 0 12 0H4Z" fill="#E1E1E1"/>
</svg>
