<svg width="180" height="77" viewBox="0 0 180 77" fill="none" xmlns="http://www.w3.org/2000/svg">
<g clip-path="url(#clip0)">
<path d="M63.2556 21.449V8.64893H73.4473V10.2094H65.0317V14.0646H73.0354V15.6251H65.0317V19.8918H73.8229L73.5165 21.4523H63.2556V21.449Z" fill="white"/>
<path d="M90.473 21.449L88.7859 17.9165H81.7707L80.1034 21.449H78.2021L84.4101 8.64893H86.2388L92.4468 21.449H90.473ZM85.2899 10.5518L82.4561 16.4481H88.1269L85.2899 10.5518Z" fill="white"/>
<path d="M107.736 16.3591H103.518V14.8348H109.403V19.997C108.685 20.5468 107.792 20.9814 106.721 21.2974C105.65 21.6135 104.54 21.7715 103.393 21.7715C101.946 21.7715 100.681 21.5081 99.5971 20.9814C98.513 20.4546 97.676 19.6908 97.0862 18.6867C96.4931 17.6826 96.1965 16.4875 96.1965 15.1015C96.1965 13.7616 96.4766 12.583 97.0401 11.5624C97.6035 10.5418 98.4141 9.74511 99.4718 9.17885C100.53 8.61259 101.785 8.32617 103.232 8.32617C104.727 8.32617 105.976 8.63893 106.981 9.26774C107.986 9.89655 108.691 10.8052 109.097 12.0003L107.337 12.3064C107.014 11.4933 106.51 10.8908 105.821 10.4957C105.133 10.1007 104.253 9.90313 103.176 9.90313C101.571 9.90313 100.315 10.3607 99.4092 11.276C98.4998 12.1912 98.0451 13.4587 98.0451 15.0851C98.0451 16.6982 98.5163 17.9526 99.462 18.848C100.408 19.7435 101.729 20.1912 103.426 20.1912C105.149 20.1912 106.583 19.8818 107.733 19.2596V16.3591H107.736Z" fill="white"/>
<path d="M115.502 21.449V8.64893H117.278V19.8885H125.674L125.368 21.449H115.502Z" fill="white"/>
<path d="M131.094 21.449V8.64893H141.286V10.2094H132.871V14.0646H140.874V15.6251H132.871V19.8918H141.662L141.359 21.449H131.094Z" fill="white"/>
<path d="M63.2556 42.5222V29.7222H65.0317V40.9617H73.4275L73.1211 42.5222H63.2556Z" fill="white"/>
<path d="M78.8479 42.5222V29.7222H80.6239V42.5222H78.8479Z" fill="white"/>
<path d="M97.9724 37.4324H93.7548V35.9081H99.6398V41.0703C98.9214 41.62 98.0285 42.0546 96.9576 42.3707C95.8867 42.6867 94.7762 42.8447 93.6295 42.8447C92.183 42.8447 90.9177 42.5814 89.8336 42.0546C88.7495 41.5279 87.9126 40.7641 87.3228 39.76C86.733 38.7558 86.4331 37.5608 86.4331 36.1748C86.4331 34.8348 86.7132 33.6562 87.2766 32.6356C87.8401 31.6151 88.6507 30.8183 89.7084 30.2521C90.7661 29.6858 92.0216 29.3994 93.4681 29.3994C94.9641 29.3994 96.2129 29.7122 97.2179 30.341C98.2229 30.9698 98.928 31.8784 99.3333 33.0735L97.5737 33.3797C97.2508 32.5665 96.7467 31.964 96.058 31.569C95.3693 31.1739 94.4896 30.9764 93.4121 30.9764C91.8074 30.9764 90.5519 31.434 89.6458 32.3492C88.7364 33.2645 88.2816 34.5319 88.2816 36.1583C88.2816 37.7715 88.7528 39.0258 89.6985 39.9213C90.6442 40.8168 91.9655 41.2645 93.6625 41.2645C95.3858 41.2645 96.8192 40.955 97.9692 40.3328V37.4324H97.9724Z" fill="white"/>
<path d="M115.917 42.5222V36.7313H107.518V42.5222H105.742V29.7222H107.518V35.0654H115.914V29.7222H117.69V42.5222H115.917Z" fill="white"/>
<path d="M128.208 42.5222V31.2827H122.896V29.7222H135.296V31.2827H129.984V42.5222H128.208Z" fill="white"/>
<path d="M140.499 42.5222V29.7222H142.275V42.5222H140.499Z" fill="white"/>
<path d="M159.211 42.5222L150.687 32.2308V42.5222H148.947V29.7222H150.671L159.192 40.0136V29.7222H160.931V42.5222H159.211Z" fill="white"/>
<path d="M178.283 37.4324H174.066V35.9081H179.951V41.0703C179.232 41.62 178.339 42.0546 177.268 42.3707C176.197 42.6867 175.087 42.8447 173.94 42.8447C172.494 42.8447 171.228 42.5814 170.144 42.0546C169.06 41.5279 168.223 40.7641 167.634 39.76C167.044 38.7558 166.744 37.5608 166.744 36.1748C166.744 34.8348 167.024 33.6562 167.587 32.6356C168.151 31.6151 168.961 30.8183 170.019 30.2521C171.077 29.6858 172.332 29.3994 173.779 29.3994C175.275 29.3994 176.524 29.7122 177.529 30.341C178.534 30.9698 179.239 31.8784 179.644 33.0735L177.885 33.3797C177.562 32.5665 177.057 31.964 176.369 31.569C175.68 31.1739 174.8 30.9764 173.723 30.9764C172.118 30.9764 170.863 31.434 169.957 32.3492C169.047 33.2645 168.592 34.5319 168.592 36.1583C168.592 37.7715 169.064 39.0258 170.009 39.9213C170.955 40.8168 172.276 41.2645 173.973 41.2645C175.697 41.2645 177.13 40.955 178.28 40.3328V37.4324H178.283Z" fill="white"/>
<path d="M180 59.4536H0V59.8092H180V59.4536Z" fill="#8E8E8D"/>
<path d="M35.5506 68.2275H36.4435L38.7764 74.5387H37.9098L37.2376 72.616H34.7202L34.0414 74.5387H33.2275L35.5506 68.2275ZM34.9509 71.9675H37.0169L36.292 69.8506C36.1667 69.4983 36.0086 68.9584 36.0086 68.9584H35.9921C35.9921 68.9584 35.8241 69.4884 35.6988 69.8506L34.9509 71.9675Z" fill="#8E8E8D"/>
<path d="M41.0928 68.2275H45.3764V68.9255H41.8869V70.8942H44.7931V71.5658H41.8869V74.5387H41.0928V68.2275Z" fill="#8E8E8D"/>
<path d="M50.7805 74.7922H51.4428C51.512 75.2959 51.9898 75.4901 52.6982 75.4901C53.5385 75.4901 54.0064 75.1115 54.0064 74.3148V73.6695H53.9899C53.6538 74.1008 53.2913 74.3741 52.6389 74.3741C51.456 74.3741 50.6421 73.4292 50.6421 72.1156C50.6421 70.6934 51.5351 69.8638 52.5928 69.8638C53.2551 69.8638 53.6801 70.1206 53.9899 70.5518H54.0064V69.9691H54.7214V74.2852C54.7214 75.4868 53.9273 76.0498 52.718 76.0498C51.5318 76.0564 50.8596 75.579 50.7805 74.7922ZM54.0591 72.0827C54.0591 71.0852 53.634 70.4662 52.662 70.4662C51.8053 70.4662 51.3736 71.1378 51.3736 72.1255C51.3736 73.123 51.825 73.7749 52.6719 73.7749C53.723 73.7782 54.0591 73.044 54.0591 72.0827Z" fill="#8E8E8D"/>
<path d="M55.8582 72.2604C55.8582 70.9369 56.7248 69.8604 58.023 69.8604C59.3938 69.8604 60.1253 70.9204 60.1253 72.4283H56.593C56.6457 73.3534 57.1498 74.0612 58.0692 74.0612C58.7315 74.0612 59.173 73.7451 59.3312 73.1262H60.0297C59.8188 74.1073 59.1038 74.6604 58.0692 74.6604C56.6687 74.6604 55.8582 73.5838 55.8582 72.2604ZM56.6094 71.8883H59.3575C59.3147 70.9797 58.8468 70.4233 58.023 70.4233C57.1729 70.4233 56.7149 71.0587 56.6094 71.8883Z" fill="#8E8E8D"/>
<path d="M61.9771 70.7326H61.9936C62.2671 70.2915 62.7449 69.9194 63.3545 69.9194C63.4863 69.9194 63.5588 69.9359 63.6477 69.9721V70.6602H63.6214C63.5159 70.624 63.4434 70.6174 63.305 70.6174C62.5999 70.6174 61.9804 71.1474 61.9804 72.0034V74.5351H61.2654V69.9721H61.9804V70.7326H61.9771Z" fill="#8E8E8D"/>
<path d="M65.4996 70.5747H65.5161C65.8423 70.1435 66.3036 69.8702 66.9659 69.8702C67.9215 69.8702 68.5014 70.3904 68.5014 71.3352V74.5386H67.7864V71.3978C67.7864 70.8052 67.3975 70.4694 66.7517 70.4694C66.0268 70.4694 65.4963 70.983 65.4963 71.7303V74.5353H64.7812V68.2241H65.4963V70.5747H65.4996Z" fill="#8E8E8D"/>
<path d="M72.8968 74.5387V73.9132H72.8804C72.5542 74.3543 72.1653 74.6473 71.503 74.6473C70.5672 74.6473 69.9675 74.0811 69.9675 73.1395V69.979H70.6826V73.1198C70.6826 73.7124 71.0615 74.0547 71.7073 74.0547C72.4322 74.0547 72.9001 73.5082 72.9001 72.784V69.979H73.6152V74.542H72.8968V74.5387Z" fill="#8E8E8D"/>
<path d="M75.075 68.2275H75.79V74.5387H75.075V68.2275Z" fill="#8E8E8D"/>
<path d="M76.6632 69.9758H77.3255V68.5371H78.0406V69.9758H78.9236V70.5585H78.0406V73.5248C78.0406 73.8408 78.2086 73.9495 78.4986 73.9495C78.6403 73.9495 78.7984 73.9133 78.8775 73.8869H78.9039V74.5059C78.7358 74.5421 78.5414 74.5684 78.3305 74.5684C77.7473 74.5684 77.3222 74.3314 77.3222 73.6861V70.5618H76.6599V69.9758H76.6632Z" fill="#8E8E8D"/>
<path d="M86.186 73.7089H86.1695C85.7115 74.3542 85.0294 74.6702 84.1991 74.6702C82.423 74.6702 81.2302 73.3204 81.2302 71.4044C81.2302 69.5509 82.2814 68.0957 84.2683 68.0957C85.7346 68.0957 86.6341 68.8891 86.8384 70.127H86.018C85.84 69.2875 85.2502 68.7838 84.2518 68.7838C82.7328 68.7838 82.0441 69.9229 82.0441 71.4044C82.0441 72.9484 82.947 73.9822 84.2254 73.9822C85.5237 73.9822 86.1333 73.0998 86.1333 72.0398V71.8883H84.2353V71.2002H86.9307V74.5352H86.42L86.186 73.7089Z" fill="#8E8E8D"/>
<path d="M89.1053 70.7326H89.1218C89.3953 70.2915 89.873 69.9194 90.4826 69.9194C90.6144 69.9194 90.6869 69.9359 90.7759 69.9721V70.6602H90.7495C90.6441 70.624 90.5716 70.6174 90.4332 70.6174C89.7281 70.6174 89.1086 71.1474 89.1086 72.0034V74.5351H88.3936V69.9721H89.1086V70.7326H89.1053Z" fill="#8E8E8D"/>
<path d="M90.9902 72.2604C90.9902 70.9369 91.8371 69.8604 93.1979 69.8604C94.5654 69.8604 95.3957 70.9369 95.3957 72.2604C95.3957 73.5838 94.5654 74.6604 93.1979 74.6604C91.8371 74.6604 90.9902 73.5838 90.9902 72.2604ZM94.6642 72.2604C94.6642 71.253 94.17 70.4497 93.1979 70.4497C92.2259 70.4497 91.7217 71.253 91.7217 72.2604C91.7217 73.2678 92.2259 74.0612 93.1979 74.0612C94.17 74.0612 94.6642 73.2645 94.6642 72.2604Z" fill="#8E8E8D"/>
<path d="M99.4652 74.5387V73.9132H99.4487C99.1225 74.3543 98.7337 74.6473 98.0714 74.6473C97.1356 74.6473 96.5359 74.0811 96.5359 73.1395V69.979H97.2509V73.1198C97.2509 73.7124 97.6298 74.0547 98.2757 74.0547C99.0006 74.0547 99.4685 73.5082 99.4685 72.784V69.979H100.184V74.542H99.4652V74.5387Z" fill="#8E8E8D"/>
<path d="M101.64 69.9755H102.355V70.6207H102.371C102.717 70.1532 103.175 69.8701 103.838 69.8701C104.994 69.8701 105.798 70.7524 105.798 72.2701C105.798 73.7352 105.047 74.6701 103.811 74.6701C103.192 74.6701 102.75 74.4858 102.371 73.9985H102.355V76.0035H101.64V69.9755ZM105.067 72.2767C105.067 71.2528 104.635 70.4759 103.769 70.4759C102.77 70.4759 102.312 71.2891 102.312 72.2767C102.312 73.2644 102.711 74.0677 103.762 74.0677C104.635 74.0677 105.067 73.3105 105.067 72.2767Z" fill="#8E8E8D"/>
<path d="M108.118 71.3781C108.118 69.5246 109.232 68.0859 111.113 68.0859C112.589 68.0859 113.479 68.932 113.647 70.0975H112.869C112.718 69.3106 112.092 68.774 111.093 68.774C109.706 68.774 108.929 69.8966 108.929 71.3781C108.929 72.9222 109.785 73.9625 111.103 73.9625C112.296 73.9625 112.86 73.1493 112.942 72.2242H113.729C113.72 72.8497 113.42 73.5576 112.968 73.9987C112.527 74.43 111.881 74.6604 111.077 74.6604C109.284 74.6604 108.118 73.2909 108.118 71.3781Z" fill="#8E8E8D"/>
<path d="M114.599 72.2604C114.599 70.9369 115.446 69.8604 116.807 69.8604C118.175 69.8604 119.005 70.9369 119.005 72.2604C119.005 73.5838 118.175 74.6604 116.807 74.6604C115.449 74.6604 114.599 73.5838 114.599 72.2604ZM118.273 72.2604C118.273 71.253 117.779 70.4497 116.807 70.4497C115.835 70.4497 115.331 71.253 115.331 72.2604C115.331 73.2678 115.835 74.0612 116.807 74.0612C117.779 74.0612 118.273 73.2645 118.273 72.2604Z" fill="#8E8E8D"/>
<path d="M120.145 69.9758H120.86V70.6277H120.876C121.16 70.1865 121.644 69.8672 122.218 69.8672C122.774 69.8672 123.216 70.1503 123.41 70.6804H123.427C123.72 70.1602 124.267 69.8672 124.824 69.8672C125.638 69.8672 126.211 70.3874 126.211 71.3322V74.5355H125.496V71.3684C125.496 70.8022 125.117 70.4664 124.656 70.4664C124.063 70.4664 123.536 70.98 123.536 71.6944V74.5355H122.821V71.3684C122.821 70.8022 122.504 70.4664 122.033 70.4664C121.476 70.4664 120.857 70.98 120.857 71.6944V74.5355H120.142V69.9758H120.145Z" fill="#8E8E8D"/>
<path d="M127.674 69.9755H128.389V70.6207H128.406C128.752 70.1532 129.21 69.8701 129.872 69.8701C131.029 69.8701 131.833 70.7524 131.833 72.2701C131.833 73.7352 131.081 74.6701 129.846 74.6701C129.226 74.6701 128.785 74.4858 128.406 73.9985H128.389V76.0035H127.674V69.9755ZM131.101 72.2767C131.101 71.2528 130.67 70.4759 129.803 70.4759C128.805 70.4759 128.347 71.2891 128.347 72.2767C128.347 73.2644 128.745 74.0677 129.796 74.0677C130.67 74.0677 131.101 73.3105 131.101 72.2767Z" fill="#8E8E8D"/>
<path d="M138.611 70.5746H138.627C138.953 70.1434 139.415 69.8701 140.077 69.8701C141.033 69.8701 141.612 70.3903 141.612 71.3351V74.5385H140.897V71.3977C140.897 70.8051 140.509 70.4693 139.863 70.4693C139.138 70.4693 138.607 70.9829 138.607 71.7302V74.5352H137.892V69.9722H138.607V70.5746H138.611Z" fill="#8E8E8D"/>
<path d="M142.894 75.9479V75.3125H142.93C143.026 75.3651 143.178 75.408 143.415 75.408C143.715 75.408 143.919 75.2927 144.094 74.8516L144.272 74.4005L142.486 69.9692H143.263L144.341 72.8104C144.482 73.189 144.65 73.7026 144.65 73.7026H144.667C144.667 73.7026 144.825 73.189 144.967 72.8104L146.008 69.9692H146.766L144.815 74.901C144.443 75.8458 144.09 76.0401 143.533 76.0401C143.267 76.0466 143.089 76.0302 142.894 75.9479Z" fill="#8E8E8D"/>
<path d="M48.8562 72.8532C48.8562 73.38 48.4245 74.0779 47.4722 74.0779C47.0043 74.0779 46.5298 73.9462 46.5298 73.3372C46.5298 72.6689 47.1032 72.5438 47.8149 72.4121C48.2037 72.3429 48.6156 72.2277 48.8562 72.0763V72.8532ZM49.502 74.5355V73.538V73.3932V71.3388C49.502 70.2557 48.787 69.8936 47.8182 69.8936C46.6122 69.8936 46.029 70.5553 46.0026 71.4343H46.6913C46.7177 70.7462 47.0867 70.4302 47.8281 70.4302C48.4805 70.4302 48.8496 70.7199 48.8496 71.2302C48.8496 71.724 48.4014 71.7833 47.7556 71.882C46.6188 72.0598 45.772 72.2771 45.772 73.3537C45.772 74.2162 46.4508 74.6211 47.3141 74.6211C48.0884 74.6211 48.5563 74.2524 48.8298 73.9002H48.8397V73.9034V74.5355H49.3208H49.502Z" fill="#8E8E8D"/>
<path d="M135.793 72.8498C135.793 73.3766 135.362 74.0745 134.409 74.0745C133.941 74.0745 133.467 73.9428 133.467 73.3338C133.467 72.6655 134.04 72.5404 134.752 72.4087C135.141 72.3395 135.553 72.2243 135.793 72.0729V72.8498ZM136.436 74.5321V73.5346V73.3897V71.3354C136.436 70.2523 135.721 69.8901 134.752 69.8901C133.546 69.8901 132.963 70.5519 132.936 71.4309H133.625C133.651 70.7428 134.021 70.4268 134.762 70.4268C135.414 70.4268 135.783 70.7165 135.783 71.2268C135.783 71.7206 135.335 71.7799 134.689 71.8786C133.553 72.0564 132.706 72.2737 132.706 73.3502C132.706 74.2128 133.385 74.6177 134.248 74.6177C135.022 74.6177 135.49 74.249 135.764 73.8967H135.774V73.9V74.5321H136.255H136.436Z" fill="#8E8E8D"/>
<path d="M50.7914 29.1853C49.8391 22.5483 46.432 15.684 41.1994 9.85684C38.3821 6.71937 35.0574 3.97697 31.5778 1.91277C29.6173 0.665024 27.5842 0.00987659 25.5445 0C25.5347 0 25.5281 0 25.5182 0C25.5083 0 25.5017 0 25.4918 0C23.4489 0.00987659 21.4125 0.665024 19.4519 1.92264C15.9625 3.98685 12.7366 6.65682 9.85999 9.85684C4.62741 15.684 1.22031 22.5483 0.268031 29.1853C-0.67436 35.7533 0.907275 41.3039 4.71968 44.8167C7.41505 47.299 10.9902 48.55 15.0366 48.55C15.3232 48.55 15.6132 48.5402 15.9032 48.5303C18.8819 50.2883 22.1967 51.1706 25.5149 51.1706C28.833 51.1706 32.1512 50.2883 35.1365 48.5303C35.4331 48.5434 35.7296 48.5533 36.0229 48.5533C40.0659 48.5533 43.6444 47.3023 46.3398 44.82C50.1522 41.3072 51.7305 35.7533 50.7914 29.1853ZM34.6225 46.5681C32.3818 46.4002 29.9929 45.8274 27.5348 44.8496C33.9404 40.1681 38.1054 31.9277 38.5271 22.8841C38.7479 18.1565 37.9274 13.5243 36.2107 9.4091C40.2537 15.3713 42.8997 23.7269 42.8997 29.9557C42.8997 36.685 39.7331 43.0191 34.6225 46.5681ZM25.5182 1.93252C25.6203 1.93252 25.7225 1.93581 25.8246 1.9391C28.1938 2.03787 30.3553 3.30537 31.7261 5.24118C35.1398 10.0708 36.8994 16.3293 36.5995 22.7952C36.1876 31.6676 31.9601 39.6841 25.5314 43.8883C19.0994 39.6841 14.8751 31.6676 14.4632 22.7952C14.1601 16.3063 15.9065 10.0478 19.3037 5.24118C20.6118 3.39096 22.6449 2.13993 24.9053 1.95556C25.103 1.9391 25.3106 1.93252 25.5182 1.93252ZM16.4172 46.5681C11.3032 43.0191 8.13996 36.6882 8.13996 29.9557C8.13996 23.7302 10.7793 15.3811 14.8224 9.41898C13.1221 13.5211 12.3115 18.1499 12.5323 22.8841C12.9541 31.9277 17.1157 40.1681 23.5247 44.8496C21.0567 45.8307 18.6644 46.4035 16.4172 46.5681ZM2.17917 29.4619C3.07873 23.1968 6.31779 16.6914 11.2966 11.1474C11.4647 10.9597 11.6327 10.7754 11.8041 10.5943C11.7744 10.647 11.7448 10.6963 11.7151 10.749C8.31789 16.7145 6.20575 24.0725 6.20575 29.9557C6.20575 36.3788 8.86158 42.4825 13.2803 46.5286C10.4498 46.2257 7.96203 45.1821 6.02782 43.3977C2.6965 40.3294 1.33234 35.3812 2.17917 29.4619ZM19.4091 48.0957C21.3927 47.6941 23.4489 47.0257 25.5281 46.0908C27.604 47.0257 29.6535 47.6908 31.6338 48.0924C27.6962 49.6233 23.35 49.6233 19.4091 48.0957ZM45.0283 43.401C43.0875 45.1887 40.5931 46.2356 37.7528 46.5319C42.1748 42.4858 44.8306 36.3821 44.8306 29.9557C44.8306 24.0725 42.7185 16.7145 39.3212 10.7457C39.2817 10.6733 39.2389 10.6042 39.196 10.5317C39.3871 10.7326 39.5717 10.9367 39.7595 11.1441C44.7416 16.6914 47.9807 23.1935 48.877 29.4586C49.7271 35.3812 48.3596 40.3327 45.0283 43.401Z" fill="url(#paint0_linear)"/>
</g>
<defs>
<linearGradient id="paint0_linear" x1="25.5285" y1="0" x2="25.5285" y2="51.1728" gradientUnits="userSpaceOnUse">
<stop offset="0.4131" stop-color="#00249C"/>
<stop offset="0.4505" stop-color="#05269A"/>
<stop offset="0.4929" stop-color="#122B94"/>
<stop offset="0.5376" stop-color="#29338B"/>
<stop offset="0.5841" stop-color="#493E7E"/>
<stop offset="0.6318" stop-color="#724D6D"/>
<stop offset="0.6807" stop-color="#A45E58"/>
<stop offset="0.7294" stop-color="#DE7340"/>
<stop offset="0.7549" stop-color="#FF7F32"/>
<stop offset="0.7552" stop-color="#FF7F32"/>
<stop offset="0.7728" stop-color="#F3642B"/>
<stop offset="0.7927" stop-color="#EA4E26"/>
<stop offset="0.8163" stop-color="#E33D21"/>
<stop offset="0.8455" stop-color="#DE321E"/>
<stop offset="0.8864" stop-color="#DB2B1C"/>
<stop offset="1" stop-color="#DA291C"/>
</linearGradient>
<clipPath id="clip0">
<rect width="180" height="76.0563" fill="white"/>
</clipPath>
</defs>
</svg>
