<svg width="16" height="16" viewBox="0 0 16 16" fill="none" xmlns="http://www.w3.org/2000/svg">
<path fill-rule="evenodd" clip-rule="evenodd" d="M8 0C5.82733 0 5.55533 0.00933333 4.702 0.048C1.79667 0.181333 0.182 1.79333 0.0486667 4.70133C0.00933333 5.55533 0 5.82733 0 8C0 10.1727 0.00933333 10.4453 0.048 11.2987C0.181333 14.204 1.79333 15.8187 4.70133 15.952C5.55533 15.9907 5.82733 16 8 16C10.1727 16 10.4453 15.9907 11.2987 15.952C14.2013 15.8187 15.82 14.2067 15.9513 11.2987C15.9907 10.4453 16 10.1727 16 8C16 5.82733 15.9907 5.55533 15.952 4.702C15.8213 1.79933 14.2073 0.182 11.2993 0.0486667C10.4453 0.00933333 10.1727 0 8 0ZM7.99999 3.89219C5.73133 3.89219 3.89199 5.73152 3.89199 8.00019C3.89199 10.2689 5.73133 12.1089 7.99999 12.1089C10.2687 12.1089 12.108 10.2695 12.108 8.00019C12.108 5.73152 10.2687 3.89219 7.99999 3.89219ZM8.00002 10.6669C6.52735 10.6669 5.33335 9.47359 5.33335 8.00026C5.33335 6.52759 6.52735 5.33359 8.00002 5.33359C9.47268 5.33359 10.6667 6.52759 10.6667 8.00026C10.6667 9.47359 9.47268 10.6669 8.00002 10.6669ZM12.2707 2.77031C11.74 2.77031 11.31 3.20031 11.31 3.73031C11.31 4.26031 11.74 4.69031 12.2707 4.69031C12.8007 4.69031 13.23 4.26031 13.23 3.73031C13.23 3.20031 12.8007 2.77031 12.2707 2.77031Z" fill="#E1E1E1"/>
</svg>
