<svg width="16" height="12" viewBox="0 0 16 12" fill="none" xmlns="http://www.w3.org/2000/svg">
<path fill-rule="evenodd" clip-rule="evenodd" d="M16 1.42063C15.4113 1.66181 14.7787 1.82424 14.1147 1.89746C14.7927 1.52276 15.3133 0.92904 15.558 0.221493C14.924 0.568499 14.2213 0.820755 13.4733 0.956727C12.8753 0.367925 12.0213 0 11.0773 0C8.958 0 7.40067 1.82486 7.87933 3.71924C5.152 3.59311 2.73333 2.3872 1.114 0.554348C0.254 1.91591 0.668 3.69709 2.12933 4.59906C1.592 4.58306 1.08533 4.44709 0.643333 4.22006C0.607333 5.62346 1.69733 6.93642 3.276 7.22867C2.814 7.34434 2.308 7.37141 1.79333 7.28035C2.21067 8.4838 3.42267 9.35931 4.86 9.38392C3.48 10.3825 1.74133 10.8285 0 10.639C1.45267 11.4986 3.17867 12 5.032 12C11.1267 12 14.57 7.24959 14.362 2.98892C15.0033 2.56132 15.56 2.02789 16 1.42063Z" fill="#E1E1E1"/>
</svg>
